<?xml version="1.0" encoding="utf-8"?>
<!-- Generator: Adobe Illustrator 16.0.4, SVG Export Plug-In . SVG Version: 6.00 Build 0)  -->
<!DOCTYPE svg PUBLIC "-//W3C//DTD SVG 1.1//EN" "http://www.w3.org/Graphics/SVG/1.1/DTD/svg11.dtd">
<svg version="1.1" id="Layer_1" xmlns="http://www.w3.org/2000/svg" xmlns:xlink="http://www.w3.org/1999/xlink" x="0px" y="0px"
	 width="512px" height="512px" viewBox="0 0 512 512" enable-background="new 0 0 512 512" xml:space="preserve">
<g>
	<path fill-rule="evenodd" clip-rule="evenodd" d="M416.871,416.871C373.904,459.837,316.774,483.5,256.003,483.5
		c-60.777,0-117.912-23.663-160.877-66.629C52.162,373.904,28.5,316.774,28.5,256c0-60.767,23.662-117.896,66.626-160.863
		C138.093,52.164,195.227,28.5,256.003,28.5c60.769,0,117.898,23.664,160.868,66.637C459.837,138.105,483.5,195.234,483.5,256
		C483.5,316.771,459.837,373.901,416.871,416.871z M256.003,32.746c-59.643,0-115.708,23.225-157.875,65.393
		C55.967,140.305,32.748,196.368,32.748,256c0,59.641,23.219,115.702,65.38,157.864c42.163,42.165,98.232,65.388,157.875,65.388
		c59.635,0,115.699-23.223,157.864-65.388c42.165-42.162,65.386-98.229,65.386-157.864
		C479.253,132.897,379.103,32.746,256.003,32.746z M223.776,319.426l-0.438,0.444l-70.777-69.716l2.98-3.025l68.203,67.181
		l145.031-145.376l3.004,2.998L224.208,319.858L223.776,319.426z"/>
</g>
</svg>
