<?xml version="1.0" encoding="utf-8"?>
<!-- Generator: Adobe Illustrator 16.0.4, SVG Export Plug-In . SVG Version: 6.00 Build 0)  -->
<!DOCTYPE svg PUBLIC "-//W3C//DTD SVG 1.1//EN" "http://www.w3.org/Graphics/SVG/1.1/DTD/svg11.dtd">
<svg version="1.1" id="Layer_1" xmlns="http://www.w3.org/2000/svg" xmlns:xlink="http://www.w3.org/1999/xlink" x="0px" y="0px"
	 width="417.5px" height="384.5px" viewBox="0 0 417.5 384.5" enable-background="new 0 0 417.5 384.5" xml:space="preserve">
<g>
	<g>
		<path d="M174.461,305.171c-21.494,0-38.97,16.171-38.97,36.009c0,19.864,17.476,36.007,38.97,36.007
			c21.477,0,38.968-16.143,38.968-36.007C213.429,321.312,195.953,305.171,174.461,305.171z M174.461,361.19
			c-11.934,0-21.657-8.974-21.657-20.011c0-11.027,9.723-20.015,21.657-20.015c11.932,0,21.639,8.985,21.639,20.015
			C196.1,352.218,186.393,361.19,174.461,361.19z M311.585,305.171c-21.478,0-38.968,16.171-38.968,36.009
			c0,19.864,17.49,36.007,38.968,36.007c21.479,0,38.971-16.143,38.971-36.007C350.556,321.312,333.063,305.171,311.585,305.171z
			 M311.585,361.19c-11.947,0-21.654-8.974-21.654-20.011c0-11.027,9.707-20.015,21.654-20.015c11.922,0,21.655,8.985,21.655,20.015
			C333.24,352.218,323.507,361.19,311.585,361.19z M407.044,65.006c-1.627-1.935-4.134-3.05-6.801-3.05H92.43L68.298,8.721
			c-0.059-0.176-0.191-0.307-0.264-0.483c-0.191-0.513-0.47-0.967-0.777-1.436c-0.292-0.441-0.542-0.88-0.909-1.247
			c-0.352-0.367-0.763-0.661-1.202-0.954c-0.439-0.322-0.878-0.645-1.393-0.878c-0.483-0.207-0.981-0.323-1.509-0.47
			c-0.573-0.146-1.116-0.279-1.715-0.323c-0.207,0-0.367-0.117-0.602-0.117h-47.62c-4.779,0-8.665,3.591-8.665,8.005
			c0,4.428,3.886,5.806,8.665,5.806h40.992l24.104,54.217l43.28,211.062c0.954,3.563,4.428,5.527,8.416,5.527h227.833
			c3.989,0,7.448-1.951,8.415-5.527l43.28-210.036C409.288,69.479,408.687,66.956,407.044,65.006z M350.16,271.977H135.886
			L96.874,76.853h292.312L350.16,271.977z"/>
	</g>
</g>
</svg>
