<?xml version="1.0" encoding="utf-8"?>
<!-- Generator: Adobe Illustrator 16.0.4, SVG Export Plug-In . SVG Version: 6.00 Build 0)  -->
<!DOCTYPE svg PUBLIC "-//W3C//DTD SVG 1.1//EN" "http://www.w3.org/Graphics/SVG/1.1/DTD/svg11.dtd">
<svg version="1.1" id="Layer_1" xmlns="http://www.w3.org/2000/svg" xmlns:xlink="http://www.w3.org/1999/xlink" x="0px" y="0px"
	 width="447.5px" height="385.5px" viewBox="0 0 447.5 385.5" enable-background="new 0 0 447.5 385.5" xml:space="preserve">
<path fill-rule="evenodd" clip-rule="evenodd" fill="#020202" d="M319.822,153.837V192l-76.448-61.935l76.448-56.68v44.896
	c55.708,0,93.759-16.134,122.819-67.043C442.642,51.238,422.466,153.837,319.822,153.837z M136.97,273.896h214.41l14.942-74.59
	h17.696l-17.442,84.506c-0.967,3.573-4.428,5.522-8.42,5.522H130.179c-3.991,0-7.467-1.962-8.421-5.522L78.45,72.959L54.331,18.796
	H13.313c-4.782,0-8.67-1.376-8.67-5.8C4.643,8.586,8.531,5,13.313,5h47.65c0.235,0,0.395,0.117,0.602,0.117
	c0.6,0.044,1.143,0.177,1.717,0.323c0.528,0.146,1.026,0.263,1.509,0.47c0.516,0.232,0.955,0.555,1.394,0.877
	c0.439,0.292,0.851,0.586,1.203,0.953c0.367,0.366,0.617,0.805,0.909,1.246c0.307,0.469,0.586,0.922,0.778,1.435
	c0.073,0.176,0.205,0.307,0.264,0.483l24.148,53.182h150.721v14.882H97.933L136.97,273.896z M175.569,307.058
	c21.506,0,38.993,16.125,38.993,35.973c0,19.845-17.502,35.971-38.993,35.971c-21.508,0-38.995-16.126-38.995-35.971
	C136.575,323.212,154.062,307.058,175.569,307.058z M175.569,363.021c11.939,0,21.653-8.964,21.653-19.991
	c0-11.019-9.713-19.995-21.653-19.995c-11.942,0-21.67,8.979-21.67,19.995C153.899,354.057,163.627,363.021,175.569,363.021z
	 M312.78,307.058c21.492,0,38.995,16.125,38.995,35.973c0,19.845-17.502,35.971-38.995,35.971
	c-21.491,0-38.993-16.126-38.993-35.971C273.787,323.212,291.289,307.058,312.78,307.058z M312.78,363.021
	c11.929,0,21.669-8.964,21.669-19.991c0-11.019-9.74-19.995-21.669-19.995c-11.955,0-21.668,8.979-21.668,19.995
	C291.112,354.057,300.825,363.021,312.78,363.021z"/>
</svg>
