<?xml version="1.0" encoding="utf-8"?>
<!-- Generator: Adobe Illustrator 16.0.4, SVG Export Plug-In . SVG Version: 6.00 Build 0)  -->
<!DOCTYPE svg PUBLIC "-//W3C//DTD SVG 1.1//EN" "http://www.w3.org/Graphics/SVG/1.1/DTD/svg11.dtd">
<svg version="1.1" id="Ebene_1" xmlns="http://www.w3.org/2000/svg" xmlns:xlink="http://www.w3.org/1999/xlink" x="0px" y="0px"
	 width="404px" height="154px" viewBox="0 0 404 154" enable-background="new 0 0 404 154" xml:space="preserve">
<g>
	<g>
		<path fill="#474747" d="M98.493,19.345c-1.83-2.796-3.945-4.809-6.343-6.04c-2.398-1.231-5.236-1.832-8.51-1.807H69.198
			c-3.895,0.009-7.036,0.576-9.419,1.705c-2.385,1.125-4.15,2.762-5.296,4.903c-1.214-2.141-3.014-3.777-5.399-4.903
			c-2.383-1.129-5.489-1.696-9.317-1.705H25.325c-3.334-0.025-6.188,0.576-8.562,1.807c-2.373,1.231-4.468,3.244-6.291,6.04
			c-0.885,1.271-1.522,2.688-1.907,4.252c-0.388,1.562-0.576,3.495-0.568,5.796v56.441h18.842l-0.274-49.831
			c0.006-0.208,0.029-0.415,0.069-0.621c0.04-0.206,0.062-0.413,0.067-0.62c0.34-1.508,0.935-2.62,1.789-3.338
			c0.854-0.718,2.001-1.072,3.438-1.068h9.078c1.43,0.331,2.456,0.876,3.078,1.636c0.622,0.761,0.925,1.821,0.91,3.184v50.657
			h18.843V35.177c-0.009-1.156,0.215-2.08,0.67-2.771c0.457-0.691,1.195-1.237,2.218-1.634c0.848-0.276,1.491-0.415,1.927-0.415
			h8.25c1.765-0.021,3.051,0.438,3.853,1.379c0.478,0.469,0.827,1.043,1.048,1.721c0.221,0.676,0.328,1.525,0.328,2.547
			L81.99,85.834h18.842l0.136-56.441c0-2.301-0.206-4.234-0.618-5.796C99.938,22.033,99.32,20.616,98.493,19.345z M109.09,50.867
			h37.549V32.698H109.09V50.867z M320.068,25.678c-0.71-4.367-2.279-7.647-4.709-9.844c-2.433-2.197-5.994-3.549-10.694-4.06
			c-1.098-0.161-2.199-0.253-3.301-0.276h-42.771v17.895h38.923c1.351,0.192,2.325,0.501,2.92,0.932
			c0.599,0.428,0.952,1.083,1.067,1.96v0.964c0.114,0.436,0.161,0.802,0.138,1.1v1.928h-25.17
			c-5.69,0.037-10.127,1.581-13.304,4.628c-3.182,3.048-4.797,7.38-4.851,12.992v15.141c0.022,1.102,0.115,2.205,0.276,3.303
			c0.821,4.359,2.789,7.689,5.913,9.998s7.434,3.476,12.929,3.495h25.856c4.324-0.054,7.981-1.325,10.967-3.821
			c2.985-2.497,4.924-5.9,5.811-10.221c0.134-0.557,0.215-1.129,0.241-1.721c0.027-0.592,0.042-1.164,0.035-1.721V28.981
			c0.007-0.551-0.008-1.102-0.035-1.651C320.283,26.779,320.202,26.228,320.068,25.678z M301.503,58.026v5.231
			c-0.023,1.103-0.392,2.062-1.102,2.893c-0.403,0.476-0.902,0.83-1.497,1.048c-0.591,0.219-1.331,0.33-2.214,0.327h-14.717
			c-0.253,0.023-0.575-0.023-0.963-0.139c-1.378-0.272-2.337-0.826-2.89-1.651c-0.342-0.43-0.587-0.876-0.736-1.34
			c-0.154-0.465-0.227-0.845-0.227-1.137v-5.78c0.13-1.226,0.422-2.113,0.879-2.669c0.456-0.553,1.124-0.856,2.011-0.91l0.824-0.139
			h15.68c0.676-0.003,1.213,0.039,1.616,0.123c0.398,0.081,0.732,0.223,0.998,0.43c1.059,0.488,1.723,0.953,1.991,1.391
			C301.43,56.144,301.541,56.916,301.503,58.026z M376.302,11.498v50.795c-0.211,1.248-0.714,2.262-1.512,3.046
			c-0.795,0.784-1.85,1.283-3.162,1.498c-0.438,0.115-0.802,0.161-1.102,0.138h-13.339c-1.658,0.004-2.916-0.484-3.784-1.463
			c-0.863-0.979-1.301-2.462-1.305-4.456V11.498h-18.846v55.478c0,2.439,0.212,4.475,0.638,6.107s1.086,3.084,1.977,4.355
			c2.183,3.18,4.489,5.389,6.911,6.622c2.425,1.237,5.487,1.828,9.183,1.774h24.341v35.87c-0.195,1.172-0.63,2.128-1.305,2.873
			c-0.676,0.741-1.662,1.252-2.959,1.532c-0.295,0.111-0.664,0.157-1.098,0.135h-37.688v18.858h44.012c0.626,0,1.267-0.03,1.927-0.1
			s1.301-0.173,1.926-0.312c3.861-0.887,6.935-2.657,9.233-5.315c2.295-2.662,3.753-6.257,4.382-10.789
			c0.131-0.622,0.212-1.24,0.242-1.859c0.027-0.618,0.038-1.24,0.03-1.858V11.498H376.302z M230.054,61.33
			c-0.008,0.207-0.031,0.415-0.069,0.618c-0.042,0.208-0.065,0.415-0.069,0.622c-0.341,1.506-0.937,2.62-1.788,3.338
			c-0.855,0.718-1.999,1.072-3.438,1.068h-9.079c-1.428-0.331-2.452-0.876-3.074-1.636c-0.621-0.761-0.929-1.821-0.913-3.184V11.498
			H192.78v50.657c0.008,1.156-0.215,2.082-0.671,2.769c-0.457,0.695-1.193,1.237-2.218,1.636c-0.848,0.277-1.489,0.415-1.923,0.415
			h-8.254c-1.765,0.023-3.047-0.438-3.853-1.379c-0.476-0.469-0.825-1.045-1.048-1.721c-0.218-0.676-0.326-1.525-0.326-2.546
			l0.138-49.832h-18.842l-0.138,56.438c0,2.305,0.208,4.236,0.618,5.8c0.415,1.563,1.032,2.98,1.857,4.252
			c1.831,2.796,3.945,4.809,6.343,6.038c2.398,1.229,5.238,1.832,8.512,1.809h14.44c3.895-0.012,7.038-0.58,9.42-1.705
			c2.387-1.126,4.152-2.762,5.295-4.905c1.217,2.144,3.013,3.779,5.399,4.905c2.384,1.125,5.488,1.693,9.317,1.705h14.44
			c3.335,0.023,6.189-0.58,8.562-1.809c2.371-1.229,4.471-3.242,6.293-6.038c0.883-1.271,1.52-2.688,1.907-4.252
			s0.576-3.495,0.568-5.8V11.498h-18.842L230.054,61.33z"/>
	</g>
</g>
<g>
	<g>
		<path fill="#C1CE1C" d="M10.113,113.569c-1.316,1.348-1.982,3.241-2.001,5.685v4.348c0,0.537,0.079,1.095,0.234,1.675
			c0.157,0.576,0.393,1.152,0.708,1.721c0.7,1.221,1.652,2.135,2.857,2.742c1.203,0.603,2.786,0.902,4.745,0.902h7.675
			c1.184-0.008,2.04,0.242,2.563,0.757c0.524,0.511,0.781,1.329,0.771,2.454v2.585c0,0.715-0.081,1.295-0.236,1.736
			c-0.158,0.445-0.394,0.787-0.708,1.033c-0.225,0.219-0.455,0.38-0.693,0.479c-0.24,0.101-0.47,0.15-0.692,0.15H7.985v5.657h18.107
			c0.61-0.008,1.291-0.138,2.043-0.403c0.75-0.261,1.493-0.634,2.229-1.105c0.347-0.281,0.671-0.584,0.971-0.911
			c0.301-0.33,0.564-0.694,0.785-1.102c0.409-0.638,0.708-1.295,0.904-1.971c0.196-0.68,0.292-1.321,0.292-1.928v-5.354
			c-0.023-1.89-0.606-3.522-1.751-4.897c-1.144-1.379-2.717-2.301-4.718-2.772c-0.253-0.035-0.516-0.065-0.787-0.089
			c-0.271-0.022-0.531-0.038-0.785-0.038h-8.431c-0.57-0.008-1.079-0.123-1.526-0.346c-0.445-0.227-0.796-0.53-1.053-0.914
			c-0.159-0.258-0.282-0.515-0.37-0.78c-0.086-0.265-0.132-0.507-0.132-0.733v-2.454c0-0.534,0.094-0.979,0.282-1.333
			c0.19-0.354,0.472-0.622,0.848-0.811c0.253-0.126,0.487-0.219,0.702-0.284c0.213-0.062,0.399-0.096,0.559-0.096h17.224v-5.654
			H15.648C13.273,111.537,11.428,112.221,10.113,113.569z M69.455,111.645c-0.219-0.034-0.441-0.062-0.667-0.088
			c-0.227-0.023-0.464-0.039-0.716-0.039H57.693c-0.251,0.004-0.504,0.016-0.754,0.031c-0.253,0.02-0.505,0.03-0.756,0.03
			c-2.458,0.284-4.327,1.084-5.607,2.397c-1.28,1.313-1.924,3.134-1.93,5.465v17.688c0.035,2.412,0.858,4.397,2.474,5.949
			c1.611,1.556,3.805,2.362,6.573,2.416h10.378c0.904,0,1.708-0.08,2.414-0.246c0.706-0.161,1.368-0.418,1.988-0.76
			c1.65-0.93,2.84-1.982,3.571-3.161c0.731-1.18,1.088-2.577,1.077-4.198v-17.688c-0.006-2.208-0.656-3.971-1.95-5.292
			C73.88,112.832,71.975,111.994,69.455,111.645z M71.468,135.555c-0.008,1.447-0.353,2.522-1.038,3.226
			c-0.683,0.707-1.66,1.061-2.924,1.057h-9.12c-1.328,0.004-2.339-0.365-3.036-1.11s-1.049-1.886-1.053-3.422v-14.038
			c0.004-1.356,0.357-2.374,1.053-3.062s1.708-1.029,3.036-1.033h9.12c1.264,0,2.241,0.334,2.924,1.01
			c0.685,0.673,1.03,1.702,1.038,3.085V135.555z M93.571,145.494h5.651v-45.303h-5.651V145.494z M138.078,136.062
			c0.019,1.336-0.257,2.281-0.833,2.838c-0.579,0.557-1.577,0.83-3.004,0.811h-8.995c-1.163-0.012-2.061-0.207-2.698-0.592
			c-0.637-0.38-1.013-0.875-1.14-1.486l-0.062-0.188v-25.927h-5.652v25.235c0.015,2.842,0.833,5.004,2.463,6.49
			c1.635,1.491,3.995,2.239,7.088,2.251h8.934c3.089-0.012,5.453-0.76,7.084-2.251c1.631-1.486,2.452-3.648,2.463-6.49v-25.235
			h-5.648V136.062z M165.865,100.191h-5.649v45.303h5.649v-28.322h5.848v-5.654h-5.848V100.191z M183.49,145.494h5.648v-33.983
			h-5.648V145.494z M186.23,100.199c-1.025,0.008-1.916,0.403-2.68,1.187c-0.375,0.354-0.659,0.761-0.848,1.233
			c-0.188,0.472-0.283,0.96-0.283,1.471c0,0.538,0.096,1.045,0.283,1.521c0.188,0.477,0.473,0.892,0.848,1.245
			c0.795,0.783,1.705,1.179,2.732,1.187c1.029,0.008,1.938-0.369,2.732-1.125c0.752-0.826,1.129-1.767,1.121-2.819
			c-0.004-1.057-0.399-1.979-1.186-2.773C188.156,100.567,187.251,100.191,186.23,100.199z M226.484,111.645
			c-0.219-0.034-0.441-0.062-0.668-0.088c-0.226-0.023-0.464-0.039-0.713-0.039h-10.381c-0.253,0.004-0.503,0.016-0.756,0.031
			c-0.249,0.02-0.503,0.03-0.752,0.03c-2.46,0.284-4.329,1.084-5.606,2.397c-1.282,1.313-1.923,3.134-1.935,5.465v17.688
			c0.039,2.412,0.864,4.397,2.476,5.949c1.611,1.556,3.807,2.362,6.573,2.416h10.381c0.901,0,1.707-0.08,2.413-0.246
			c0.706-0.161,1.366-0.418,1.988-0.76c1.65-0.93,2.836-1.982,3.568-3.161c0.733-1.18,1.09-2.577,1.075-4.198v-17.688
			c-0.004-2.208-0.653-3.971-1.946-5.292C230.909,112.832,229.002,111.994,226.484,111.645z M228.499,135.555
			c-0.008,1.447-0.353,2.522-1.04,3.226c-0.683,0.707-1.657,1.061-2.924,1.057h-9.121c-1.324,0.004-2.337-0.365-3.036-1.11
			c-0.694-0.745-1.043-1.886-1.051-3.422v-14.038c0.008-1.356,0.356-2.374,1.051-3.062c0.699-0.688,1.712-1.029,3.036-1.033h9.121
			c1.267,0,2.241,0.334,2.924,1.01c0.688,0.673,1.032,1.702,1.04,3.085V135.555z M269.084,111.518h-8.934
			c-3.093,0.012-5.453,0.761-7.084,2.247c-1.631,1.49-2.452,3.653-2.468,6.495v25.234h5.653v-24.543
			c-0.023-1.337,0.257-2.281,0.84-2.842c0.584-0.558,1.604-0.826,3.059-0.811h8.995c1.136,0.012,2.026,0.211,2.675,0.591
			c0.648,0.381,1.036,0.88,1.162,1.487v26.117h5.653V120.26c-0.016-2.842-0.837-5.005-2.468-6.495
			C274.541,112.278,272.177,111.529,269.084,111.518z M300.048,118.362c0.188-0.354,0.473-0.622,0.853-0.811
			c0.249-0.126,0.483-0.219,0.698-0.284c0.215-0.062,0.399-0.096,0.557-0.096h17.226v-5.654h-17.729
			c-2.376,0.02-4.222,0.703-5.537,2.052c-1.312,1.348-1.98,3.241-2,5.685v4.348c0,0.537,0.077,1.095,0.234,1.675
			c0.157,0.576,0.396,1.152,0.706,1.721c0.702,1.221,1.654,2.135,2.858,2.742c1.205,0.603,2.786,0.902,4.743,0.902h7.679
			c1.183-0.008,2.038,0.242,2.563,0.757c0.522,0.511,0.779,1.329,0.768,2.454v2.585c0,0.715-0.076,1.295-0.233,1.736
			c-0.158,0.445-0.396,0.787-0.707,1.033c-0.223,0.219-0.456,0.38-0.694,0.479c-0.237,0.101-0.468,0.15-0.69,0.15h-17.353v5.657
			h18.104c0.614-0.008,1.293-0.138,2.046-0.403c0.752-0.261,1.492-0.634,2.229-1.105c0.349-0.281,0.671-0.584,0.975-0.911
			c0.299-0.33,0.56-0.694,0.782-1.102c0.407-0.638,0.706-1.295,0.902-1.971c0.195-0.68,0.291-1.321,0.291-1.928v-5.354
			c-0.022-1.89-0.606-3.522-1.75-4.897c-1.146-1.379-2.717-2.301-4.72-2.772c-0.253-0.035-0.514-0.065-0.786-0.089
			c-0.269-0.022-0.53-0.038-0.783-0.038h-8.431c-0.572-0.008-1.082-0.123-1.527-0.346c-0.445-0.227-0.795-0.53-1.052-0.914
			c-0.161-0.258-0.284-0.515-0.372-0.78c-0.084-0.265-0.131-0.507-0.131-0.733v-2.454
			C299.768,119.161,299.86,118.716,300.048,118.362z"/>
	</g>
</g>
</svg>
